<svg xmlns="http://www.w3.org/2000/svg" width="52" height="60" viewBox="0 0 52 60">
    <g fill="#000" fill-rule="evenodd">
        <path d="M43.477 30.065c-.731 0-1.446.096-2.138.282V30a3.049 3.049 0 0 0-3.045-3.045H3.045A3.049 3.049 0 0 0 0 30v14.514c0 4.223 1.975 8.333 5.184 10.852v1.589A3.049 3.049 0 0 0 8.229 60H33.11a3.049 3.049 0 0 0 3.046-3.045v-1.589c2.267-1.78 3.916-4.353 4.69-7.2.843.285 1.724.43 2.631.43 4.538 0 8.23-3.691 8.23-8.229v-2.073c0-4.538-3.692-8.23-8.23-8.23zm-2.138 8.229a2.14 2.14 0 0 1 2.138-2.138 2.14 2.14 0 0 1 2.139 2.138v2.073a2.14 2.14 0 0 1-2.139 2.138 2.14 2.14 0 0 1-2.138-2.138v-2.073zM33.11 58.056H8.23a1.103 1.103 0 0 1-1.102-1.101v-1.102h27.085v1.102c0 .607-.494 1.101-1.102 1.101zm6.285-13.542c0 3.678-1.73 7.247-4.534 9.395H6.478c-2.804-2.148-4.534-5.717-4.534-9.395V30c0-.607.494-1.102 1.101-1.102h35.249c.607 0 1.101.495 1.101 1.102V44.514zm10.367-4.147a6.292 6.292 0 0 1-6.285 6.285c-.78 0-1.533-.14-2.248-.416.072-.57.11-1.144.11-1.722v-.671a4.057 4.057 0 0 0 2.138.606 4.087 4.087 0 0 0 4.082-4.082v-2.073a4.087 4.087 0 0 0-4.082-4.082c-.783 0-1.516.222-2.138.606v-2.435a6.292 6.292 0 0 1 8.423 5.91v2.074zM20.013 19.263c-1.064.976-2.389 2.19-2.389 4.517a.972.972 0 1 0 1.944 0c0-1.472.776-2.183 1.758-3.083 1.064-.975 2.389-2.189 2.389-4.516 0-2.329-1.325-3.543-2.389-4.52-.982-.9-1.758-1.611-1.758-3.085 0-1.473.776-2.185 1.758-3.086 1.064-.975 2.389-2.19 2.389-4.518a.972.972 0 1 0-1.944 0c0 1.473-.776 2.185-1.758 3.086-1.064.975-2.389 2.19-2.389 4.518 0 2.329 1.325 3.543 2.389 4.519.982.9 1.758 1.612 1.758 3.086 0 1.472-.776 2.183-1.758 3.082zM26.233 19.263c-1.064.976-2.389 2.19-2.389 4.517a.972.972 0 1 0 1.944 0c0-1.472.776-2.183 1.758-3.083 1.065-.975 2.39-2.189 2.39-4.516 0-2.329-1.325-3.543-2.39-4.52-.982-.9-1.758-1.611-1.758-3.085a.972.972 0 1 0-1.944 0c0 2.329 1.325 3.543 2.39 4.519.981.9 1.757 1.612 1.757 3.086 0 1.472-.775 2.183-1.758 3.082zM13.793 19.263c-1.065.976-2.39 2.19-2.39 4.517a.972.972 0 1 0 1.945 0c0-1.472.776-2.183 1.758-3.083 1.064-.975 2.389-2.189 2.389-4.516 0-2.329-1.325-3.543-2.389-4.52-.982-.9-1.758-1.611-1.758-3.085a.972.972 0 1 0-1.944 0c0 2.329 1.324 3.543 2.388 4.519.983.9 1.759 1.612 1.759 3.086 0 1.472-.776 2.183-1.758 3.082z"/>
    </g>
</svg>
