<svg xmlns="http://www.w3.org/2000/svg" width="62" height="60" viewBox="0 0 62 60">
    <g fill="#000" fill-rule="evenodd">
        <path d="M56.413 38.363H41.686l3.595-1.957h11.132a.978.978 0 1 0 0-1.956h-11.38a.977.977 0 0 0-.468.119l-7.186 3.91-.006.004-6.72 3.657-6.721-3.657a.168.168 0 0 1-.007-.004l-7.186-3.91a.977.977 0 0 0-.467-.12H4.892a.978.978 0 1 0 0 1.957h11.131l3.595 1.957H4.891A4.897 4.897 0 0 0 0 43.254a4.897 4.897 0 0 0 4.891 4.891h51.522a4.897 4.897 0 0 0 4.891-4.89 4.897 4.897 0 0 0-4.891-4.892zm0 7.826H4.891a2.938 2.938 0 0 1-2.934-2.935A2.938 2.938 0 0 1 4.89 40.32h18.322l6.972 3.794a.978.978 0 0 0 .935 0l6.971-3.794h18.322a2.938 2.938 0 0 1 2.935 2.935 2.938 2.938 0 0 1-2.935 2.935zM44.283 54.993a.98.98 0 0 0-1.957 0 .98.98 0 0 0 1.957 0z"/>
        <path d="M56.413 50.102H16.63a.978.978 0 1 0 0 1.956h38.735c-.476 3.315-3.334 5.87-6.778 5.87h-35.87c-3.443 0-6.302-2.555-6.778-5.87h6.778a.978.978 0 1 0 0-1.956H4.891a.978.978 0 0 0-.978.978c0 4.855 3.95 8.805 8.804 8.805h35.87c4.855 0 8.804-3.95 8.804-8.805a.978.978 0 0 0-.978-.978zM14.087 21.882a.98.98 0 0 0 0 1.957.98.98 0 0 0 0-1.957zM47.217 21.882a.98.98 0 0 0 0 1.957.98.98 0 0 0 0-1.957zM18 24.621a.98.98 0 0 0 0 1.957.98.98 0 0 0 0-1.957z"/>
        <path d="M4.891 32.493h51.522c.54 0 .978-.438.978-.978v-3.08c0-7.732-6.29-14.022-14.021-14.022H31.63V10.19l8.607-3.973a.979.979 0 0 0 0-1.776L31.062.205a.978.978 0 0 0-1.388.889V14.413h-11.74c-7.73 0-14.021 6.29-14.021 14.022v3.08c0 .54.438.978.978.978zm26.74-29.87l5.862 2.706-5.863 2.706V2.623zM5.87 28.435c0-6.653 5.412-12.065 12.065-12.065H43.37c6.652 0 12.065 5.412 12.065 12.065v2.102H5.87v-2.102z"/>
    </g>
</svg>
