<svg xmlns="http://www.w3.org/2000/svg" width="60" height="60" viewBox="0 0 60 60">
    <g fill="#000" fill-rule="evenodd">
        <path d="M16.998 27h-7a1 1 0 0 0-1 1V38a1 1 0 0 0 1 1h7a1 1 0 0 0 1-1V28a1 1 0 0 0-1-1zm-1 9.999h-5V29h5V37zM33.995 27h-6.999a1 1 0 0 0-1 1V38a1 1 0 0 0 1 1h6.999a1 1 0 0 0 1-1V28a1 1 0 0 0-1-1zm-1 9.999h-4.999V29h5V37zM33.995 42.998h-6.999a1 1 0 0 0-1 1v9.998a1 1 0 0 0 1 1h6.999a1 1 0 0 0 1-1v-9.998a1 1 0 0 0-1-1zm-1 9.999h-4.999v-8h5v8zM49.993 27h-7a1 1 0 0 0-1 1V38a1 1 0 0 0 1 1h7a1 1 0 0 0 1-1V28a1 1 0 0 0-1-1zm-1 9.999h-5V29h5V37zM16.998 42.998h-7a1 1 0 0 0-1 1v9.998a1 1 0 0 0 1 1h7a1 1 0 0 0 1-1v-9.998a1 1 0 0 0-1-1zm-1 9.999h-5v-8h5v8zM49.993 42.998h-7a1 1 0 0 0-1 1v9.998a1 1 0 0 0 1 1h7a1 1 0 0 0 1-1v-9.998a1 1 0 0 0-1-1zm-1 9.999h-5v-8h5v8z"/>
        <path d="M55.992 57.996V24.001h1a1 1 0 0 0 1-1v-5a1 1 0 0 0-1-1h-1v-3.998a1 1 0 0 0-1-1h-2V1.004a1 1 0 0 0-1-1H8a1 1 0 0 0-1 1v10.999h-2a1 1 0 0 0-1 1v3.999H3a1 1 0 0 0-1 1V23a1 1 0 0 0 1 1h1v33.995H0v2h60v-2h-4.008zM8.999 2.004h41.994v9.999H8.999V2.004zm-3 11.998h47.993v3H6v-3zm47.993 43.994H6V24.001h47.993v33.995zM5 22.001H4v-3h51.993v3H4.999z"/>
        <path d="M28.46 5.425a3.114 3.114 0 0 0-.67-1.053 3.079 3.079 0 0 0-1.04-.695 3.48 3.48 0 0 0-1.345-.252c-.492 0-.941.083-1.348.25a3.055 3.055 0 0 0-1.043.695c-.29.297-.514.648-.673 1.055a3.605 3.605 0 0 0-.239 1.325c0 .477.08.919.239 1.325.159.406.383.758.673 1.055.289.297.637.529 1.043.695.407.167.856.25 1.348.25.492 0 .94-.083 1.345-.25a3.034 3.034 0 0 0 1.04-.695 3.14 3.14 0 0 0 .67-1.055c.159-.406.238-.848.238-1.325s-.08-.919-.238-1.325zM27.315 7.71c-.095.284-.23.524-.407.72a1.765 1.765 0 0 1-.646.453c-.254.105-.54.157-.857.157-.318 0-.605-.052-.86-.157a1.781 1.781 0 0 1-.65-.453 2.017 2.017 0 0 1-.411-.72 2.986 2.986 0 0 1-.144-.96c0-.357.048-.677.144-.96a2.04 2.04 0 0 1 .411-.723 1.77 1.77 0 0 1 .65-.454c.255-.105.542-.158.86-.158.318 0 .603.053.857.158.253.105.468.256.646.454.176.198.312.439.407.722.094.284.141.604.141.96 0 .358-.047.678-.141.961zM19.925 3.497v2.798h-3.05V3.497h-1.22v6.506h1.22V7.159h3.05v2.844h1.219V3.497zM41.018 9.004V3.497h-1.21v6.506h3.815v-.999zM28.752 3.497v.994h1.967v5.512h1.21V4.49h1.957v-.994zM38.759 4.46v-.963h-4.103v6.506h4.103v-.967h-2.884v-1.84h2.272v-.932h-2.272V4.46z"/>
    </g>
</svg>
