<svg xmlns="http://www.w3.org/2000/svg" width="63" height="60" viewBox="0 0 63 60">
    <g fill="#fff" fill-rule="evenodd">
        <path d="M62.179 18.82c-.002-.02.001-.041-.002-.062l-1.12-8.962C60.383 4.404 55.406.017 49.961.017H13.336C7.924.017 2.71 4.34 1.714 9.651L.019 18.69c-.004.02-.002.042-.005.063-.006.047-.014.093-.014.141v39.978c0 .612.497 1.11 1.11 1.11H61.076a1.11 1.11 0 0 0 1.11-1.11V18.894c0-.025-.006-.05-.007-.074zM3.897 10.06c.809-4.313 5.043-7.822 9.439-7.822H49.96c4.363 0 8.353 3.514 8.893 7.833l.964 7.714H2.448l1.449-7.725zm13.87 47.702H9.995v-8.338a3.887 3.887 0 0 1 7.774 0v8.338zm16.658 0H26.65v-8.338a3.887 3.887 0 0 1 7.774 0v8.338zm16.656 0h-7.773v-8.338a3.887 3.887 0 0 1 7.773 0v8.338zm8.884 0h-6.663v-8.338c0-3.362-2.74-6.098-6.107-6.098-3.368 0-6.108 2.736-6.108 6.098v8.338h-4.442v-8.338c0-3.362-2.74-6.098-6.107-6.098-3.368 0-6.108 2.736-6.108 6.098v8.338h-4.442v-8.338c0-3.362-2.74-6.098-6.107-6.098-3.368 0-6.108 2.736-6.108 6.099v8.337H2.221V37.773h57.744v19.989zm0-22.21H2.221V20.006h57.744v15.546z"/>
        <path d="M8.884 22.227a4.448 4.448 0 0 0-4.442 4.443v5.551c0 .613.497 1.11 1.11 1.11h6.663a1.11 1.11 0 0 0 1.11-1.11v-5.55a4.448 4.448 0 0 0-4.441-4.444zm2.22 8.883H6.664v-4.44c0-1.225.996-2.222 2.22-2.222 1.225 0 2.222.997 2.222 2.222v4.44zM19.988 22.227a4.448 4.448 0 0 0-4.441 4.443v5.551c0 .613.497 1.11 1.11 1.11h6.663a1.11 1.11 0 0 0 1.11-1.11v-5.55a4.448 4.448 0 0 0-4.442-4.444zm2.221 8.883h-4.441v-4.44c0-1.225.996-2.222 2.22-2.222 1.225 0 2.221.997 2.221 2.222v4.44zM31.093 22.227a4.448 4.448 0 0 0-4.442 4.443v5.551c0 .613.498 1.11 1.11 1.11h6.664a1.11 1.11 0 0 0 1.11-1.11v-5.55a4.448 4.448 0 0 0-4.442-4.444zm2.221 8.883h-4.442v-4.44c0-1.225.997-2.222 2.221-2.222 1.225 0 2.221.997 2.221 2.222v4.44zM42.198 22.227a4.448 4.448 0 0 0-4.442 4.443v5.551c0 .613.497 1.11 1.11 1.11h6.663a1.11 1.11 0 0 0 1.11-1.11v-5.55a4.448 4.448 0 0 0-4.441-4.444zm2.22 8.883h-4.441v-4.44c0-1.225.996-2.222 2.22-2.222 1.226 0 2.222.997 2.222 2.222v4.44zM53.302 22.227a4.448 4.448 0 0 0-4.441 4.443v5.551c0 .613.497 1.11 1.11 1.11h6.663a1.11 1.11 0 0 0 1.11-1.11v-5.55a4.448 4.448 0 0 0-4.442-4.444zm2.221 8.883h-4.441v-4.44c0-1.225.996-2.222 2.22-2.222 1.225 0 2.222.997 2.222 2.222v4.44z"/>
    </g>
</svg>
