<svg xmlns="http://www.w3.org/2000/svg" width="38" height="37" viewBox="0 0 38 37">
    <g fill="#FFF" fill-rule="evenodd">
        <path d="M31.716 12.538c-.83-4.968-5.042-8.668-10.032-8.78C20.37 1.442 17.968.016 15.323.016c-3.137 0-5.913 2.028-6.936 4.996-1.589-.164-3.081.581-3.955 1.87C1.922 7.123 0 9.235 0 11.832c0 1.563.722 3.002 1.918 3.934A6.867 6.867 0 0 0 0 20.537c0 3.771 3.025 6.84 6.742 6.84v-1.243c-3.041 0-5.516-2.51-5.516-5.597 0-3.086 2.475-5.597 5.492-5.597l.424.003.177-.31a4.295 4.295 0 0 1 3.713-2.18c.257 0 .526.027.798.078l.569.109.14-.57c1.018-4.168 4.684-7.08 8.913-7.08 4.635 0 8.555 3.52 9.117 8.187l.043.354c.02.26.033.522.033.787 0 5.144-4.124 9.328-9.193 9.328v1.244c5.745 0 10.419-4.742 10.419-10.572 0-.165-.014-.326-.02-.489 2.811.574 4.923 3.114 4.923 6.086 0 3.429-2.75 6.219-6.129 6.219v1.243c4.056 0 7.355-3.347 7.355-7.462 0-3.697-2.723-6.846-6.284-7.377zm-20.22-1.308c-2.047-.18-3.946.798-5.05 2.473a6.637 6.637 0 0 0-3.567 1.233 3.729 3.729 0 0 1-1.653-3.105c0-2.032 1.57-3.668 3.574-3.725l.342-.01.171-.3a3.069 3.069 0 0 1 2.655-1.562c.23 0 .462.029.706.087l.58.138.153-.583c.714-2.718 3.146-4.616 5.916-4.616 1.982 0 3.798.965 4.94 2.563-4.098.474-7.554 3.36-8.767 7.407z"/>
        <path d="M10.49 26.48l1.097.548-1.243 2.487-1.097-.548zM8.508 33.25L7.41 32.7l1.244-2.487 1.096.549zM6.666 36.982l-1.097-.549 1.244-2.487 1.097.548zM14.781 26.48l1.097.548-1.244 2.487-1.096-.548zM12.798 33.248l-1.096-.548 1.243-2.487 1.097.548zM10.956 36.98l-1.097-.548 1.244-2.488 1.097.549zM19.072 26.48l1.097.549-1.244 2.487-1.096-.548zM17.086 33.252l-1.096-.548 1.244-2.488 1.096.548zM15.246 36.98l-1.096-.548 1.243-2.487 1.097.548zM23.363 26.48l1.096.549-1.244 2.487-1.096-.548zM21.377 33.25l-1.096-.547 1.243-2.488 1.097.548zM19.538 36.98l-1.096-.549 1.243-2.487 1.097.548zM27.506 29.516l-1.097-.549 1.244-2.487 1.097.548zM25.667 33.25l-1.096-.549 1.243-2.487 1.097.548zM23.828 36.98l-1.096-.548 1.243-2.488 1.097.548z"/>
    </g>
</svg>
