<svg xmlns="http://www.w3.org/2000/svg" width="26" height="60" viewBox="0 0 26 60">
    <g fill="#FFF" fill-rule="evenodd">
        <path d="M24.007 38.987a1 1 0 0 0 1-1v-21a1 1 0 0 0-1-1h-1.219l-1.81-7.242c-.007-.027-.024-.048-.033-.074a.95.95 0 0 0-.154-.289c-.02-.025-.032-.055-.055-.078l-7.5-8c-.378-.404-1.081-.404-1.459 0l-7.5 8c-.022.024-.035.053-.055.078a.97.97 0 0 0-.074.107 1.016 1.016 0 0 0-.08.182c-.009.026-.026.047-.032.074l-1.811 7.242H1.006a1 1 0 0 0-1 1v21a1 1 0 0 0 1 1h1v9h-2v2h2v2h-2v2h2v4a1 1 0 0 0 1 1h3v.026h2v-.026h2v.026h2v-.026h1v.026h2v-.026h2v.026h2v-.026h3a1 1 0 0 0 1-1v-4h2v-2h-2v-2h2v-2h-2v-9h1.001zm-11.5-36.538l5.192 5.538H7.315l5.192-5.538zm-6.72 7.538h13.438l1.5 6h-1.719v-3h-2v3h-2v-3h-2v3h-1v-3h-2v3h-2v-3h-2v3H4.287l1.5-6zm-3.78 8h21v19h-21v-19zm8 21v9h-2v-9h2zm3 0v9h-1v-9h1zm-3 11v2h-2v-2h2zm2 0h1v2h-1v-2zm3 0h2v2h-2v-2zm0-2v-9h2v9h-2zm-11-9h2v9h-2v-9zm0 11h2v2h-2v-2zm0 7v-3h2v3h-2zm4 0v-3h2v3h-2zm4 0v-3h1v3h-1zm3 0v-3h2v3h-2zm6 0h-2v-3h2v3zm0-5h-2v-2h2v2zm0-4h-2v-9h2v9z"/>
        <path d="M12.507 34.987c4.136 0 7.5-3.364 7.5-7.5s-3.364-7.5-7.5-7.5-7.5 3.364-7.5 7.5 3.364 7.5 7.5 7.5zm0-13c3.033 0 5.5 2.468 5.5 5.5s-2.467 5.5-5.5 5.5a5.506 5.506 0 0 1-5.5-5.5c0-3.032 2.467-5.5 5.5-5.5z"/>
        <path d="M16.007 27.987v-2h-3v-3h-2v5h2z"/>
    </g>
</svg>
