<svg xmlns="http://www.w3.org/2000/svg" width="41" height="45" viewBox="0 0 41 45">
    <g fill="#FFF" fill-rule="evenodd">
        <ellipse cx="20.208" cy="1.484" rx="1.494" ry="1.484"/>
        <ellipse cx="20.208" cy="38.532" rx="1.491" ry="1.481"/>
        <ellipse cx="1.559" cy="20.005" rx="1.491" ry="1.481"/>
        <ellipse cx="38.862" cy="20.008" rx="1.494" ry="1.484"/>
        <ellipse cx="3.134" cy="12.556" rx="1.494" ry="1.484"/>
        <path d="M37.285 28.94c.822 0 1.49-.661 1.49-1.478s-.668-1.479-1.49-1.479-1.489.662-1.489 1.479c0 .817.667 1.479 1.49 1.479z"/>
        <ellipse cx="6.999" cy="6.932" rx="1.494" ry="1.484"/>
        <ellipse cx="33.425" cy="33.081" rx="1.491" ry="1.481"/>
        <ellipse cx="12.819" cy="2.997" rx="1.489" ry="1.479"/>
        <ellipse cx="27.6" cy="37.016" rx="1.494" ry="1.484"/>
        <ellipse cx="27.788" cy="3.08" rx="1.491" ry="1.481"/>
        <ellipse cx="12.636" cy="36.933" rx="1.494" ry="1.484"/>
        <ellipse cx="33.228" cy="6.739" rx="1.494" ry="1.484"/>
        <ellipse cx="7.198" cy="33.276" rx="1.494" ry="1.484"/>
        <ellipse cx="37.253" cy="12.475" rx="1.491" ry="1.481"/>
        <ellipse cx="3.176" cy="27.538" rx="1.494" ry="1.484"/>
        <path d="M23.98 35.415a15.829 15.829 0 0 0 7.42-4.153c6.212-6.167 6.212-16.192 0-22.356-2.998-2.984-6.995-4.628-11.25-4.628-4.249 0-8.248 1.645-11.252 4.63-3.008 2.985-4.666 6.955-4.666 11.178 0 4.223 1.656 8.193 4.666 11.176a15.87 15.87 0 0 0 7.41 4.153l-1.352 6.406H7.893v2.3h24.59v-2.3h-7.145l-1.357-6.406zm-.395-1.881l-.285-1.346c.588-.144 1.172-.303 1.728-.53l.558 1.257c-.642.267-1.325.447-2.001.619zm-2.249-13.188c0-.007.003-.014.003-.023H31.81c-.007.317-.021.632-.05.94-.004.051-.015.102-.025.152a12.973 12.973 0 0 1-.16 1.028c-.148.727-.37 1.433-.655 2.105l-9.585-4.202zm9.381 4.625a11.488 11.488 0 0 1-2.156 3.126l-7.338-7.282 9.494 4.156zm-9.376-5.124l-.002-.026 9.582-4.195c.274.649.487 1.327.637 2.031.007.037.019.067.026.101.064.309.106.621.145.936.01.072.028.145.035.221.03.306.044.621.049.934H21.34v-.002zm-.118-.492l7.338-7.29c.885.916 1.61 1.972 2.156 3.131l-9.494 4.159zm-.348-.33l4.192-9.436c1.17.543 2.23 1.267 3.152 2.143l-7.344 7.294zm7.348 9.415a11.753 11.753 0 0 1-3.151 2.14l-4.037-9.086-.048-.244 7.236 7.19zm-3.584 2.343c-.491.205-1.015.336-1.538.474l-1.584-7.505 3.122 7.031zm1.375 1.925l-.556-1.255a12.598 12.598 0 0 0 3.44-2.342l.977.97a13.924 13.924 0 0 1-3.86 2.627zm4.199-2.962l-.98-.97a12.382 12.382 0 0 0 2.36-3.42l1.257.551a13.68 13.68 0 0 1-2.637 3.839zm2.839-4.271l-1.25-.548c.312-.745.546-1.52.713-2.316v-.002c.074-.361.127-.727.17-1.093.006-.052.017-.108.022-.158.037-.343.048-.69.053-1.038h1.373a13.706 13.706 0 0 1-1.081 5.155zm1.084-5.628h-1.374a13.95 13.95 0 0 0-.053-1.033c-.007-.071-.02-.143-.03-.212-.046-.347-.09-.694-.16-1.037a.761.761 0 0 1-.018-.069 12.1 12.1 0 0 0-.707-2.256l1.258-.55a13.794 13.794 0 0 1 1.084 5.157zm-1.286-5.585l-1.255.55a12.533 12.533 0 0 0-2.362-3.418l.98-.97a13.795 13.795 0 0 1 2.637 3.838zm-2.975-4.174l-.978.97a12.653 12.653 0 0 0-3.443-2.346l.553-1.255a13.97 13.97 0 0 1 3.868 2.63zm-9.488-3.903a14.09 14.09 0 0 1 5.192 1.072l-.554 1.255a12.287 12.287 0 0 0-2.26-.692c-.028-.007-.05-.016-.081-.02-.338-.07-.68-.116-1.028-.157-.077-.01-.15-.028-.23-.035-.347-.036-.697-.05-1.042-.055l.003-1.368zm0 2.32c.32.005.632.012.942.049.079.007.148.025.234.037.313.036.625.078.931.14.028.004.056.016.09.023.711.15 1.397.363 2.05.637l-4.224 9.515a.083.083 0 0 0-.023-.005V8.505zm0 15.546l1.572 7.436c-.519.083-1.035.168-1.572.177v-7.613zm0 8.563c.602-.01 1.188-.106 1.769-.195l.283 1.343c-.674.108-1.355.216-2.052.225v-1.373zm-.48-26.43v1.372c-.345.004-.694.018-1.042.052-.046.007-.095.017-.143.021a12.469 12.469 0 0 0-3.446.883l-.56-1.253a14.092 14.092 0 0 1 5.191-1.074zm-.831 13.17l-9.495-4.156a11.757 11.757 0 0 1 2.156-3.13l7.339 7.287zm-7-7.622c.921-.876 1.984-1.6 3.153-2.143l4.19 9.43-7.344-7.287zm6.887 8.094c-.003.007-.003.016-.003.023H8.493c.002-.315.011-.63.044-.94.004-.054.018-.102.025-.155.128-1.095.4-2.148.815-3.128l9.586 4.2zm-.003.494c0 .01.003.017.003.023l-9.586 4.2c-.28-.671-.5-1.366-.653-2.09-.002-.014-.007-.023-.009-.035a9.677 9.677 0 0 1-.146-.964c-.007-.066-.023-.13-.03-.197a9.595 9.595 0 0 1-.048-.937h10.47zm.116.495l-7.339 7.286a11.651 11.651 0 0 1-2.158-3.125l9.497-4.161zm.225.45l-.058.274-4.011 9.042a11.753 11.753 0 0 1-3.152-2.142l7.22-7.173zm-.533 2.512l-1.58 7.475c-.523-.135-1.044-.266-1.53-.469l3.11-7.006zm-.635 8.642c.586.092 1.175.186 1.774.197v1.371c-.699-.01-1.38-.12-2.058-.228l.284-1.34zm.195-.934l1.58-7.464v7.643c-.538-.01-1.059-.097-1.58-.18zm1.559-12.579L15.66 9.389c.994-.414 2.054-.69 3.166-.815.049-.004.095-.013.143-.02.306-.033.626-.042.938-.049v10.396c-.007.003-.014.003-.02.005zM14.285 7.464l.558 1.253a12.534 12.534 0 0 0-3.444 2.346l-.975-.975a13.833 13.833 0 0 1 3.86-2.624zm-4.199 2.962l.975.97A12.533 12.533 0 0 0 8.7 14.814l-1.26-.552a13.756 13.756 0 0 1 2.647-3.836zm-2.848 4.262l1.262.552c-.31.738-.55 1.51-.713 2.3 0 .007-.003.014-.005.02-.074.36-.127.72-.17 1.084-.004.055-.018.11-.022.168-.037.342-.049.685-.054 1.035H6.154c.028-1.801.396-3.545 1.084-5.16zM6.154 20.32h1.38c.007.348.016.693.053 1.035.01.07.024.14.035.212.037.35.088.692.155 1.037a.435.435 0 0 1 .016.065c.167.775.401 1.534.704 2.256l-1.262.552a13.687 13.687 0 0 1-1.081-5.157zm1.287 5.592l1.263-.554a12.45 12.45 0 0 0 2.36 3.42l-.978.97a13.833 13.833 0 0 1-2.645-3.836zm2.983 4.17l.975-.97a12.566 12.566 0 0 0 3.441 2.338l-.555 1.256a13.882 13.882 0 0 1-3.86-2.624zm4.291 2.829l.558-1.258c.552.232 1.138.384 1.719.529l-.285 1.345c-.676-.168-1.352-.35-1.992-.616zm1.43 8.91l1.305-6.171c.883.15 1.786.242 2.703.242.912 0 1.808-.093 2.688-.24l1.304 6.169h-8z"/>
    </g>
</svg>
