<svg xmlns="http://www.w3.org/2000/svg" width="60" height="60" viewBox="0 0 60 60">
    <g fill="#fff" fill-rule="evenodd">
        <path d="M52.998 15.692l-.653.653c-1.222 1.222-2.111 1.576-3.963 1.576-3.744 0-6.461-2.718-6.461-6.462 0-1.852.353-2.74 1.575-3.963l.653-.652L37.305 0 0 37.305l6.844 6.844.652-.653c1.222-1.222 2.111-1.575 3.963-1.575 3.744 0 6.462 2.717 6.462 6.461 0 1.852-.354 2.74-1.576 3.963l-.653.653 6.844 6.843 37.305-37.305-6.843-6.844zM18.277 52.971c1.1-1.312 1.49-2.576 1.49-4.589 0-4.736-3.572-8.308-8.308-8.308-2.013 0-3.277.39-4.59 1.49L2.61 37.305l21.772-21.771 3.04 3.04 1.305-1.306-3.04-3.04L37.305 2.61l4.26 4.26c-1.101 1.312-1.49 2.576-1.49 4.59 0 4.735 3.57 8.307 8.307 8.307 2.013 0 3.277-.39 4.59-1.49l4.259 4.259-11.618 11.618-3.04-3.04-1.305 1.305 3.04 3.04-21.772 21.772-4.26-4.26z"/>
        <path d="M32.96 24.113l-3.692-3.693 1.305-1.305 3.693 3.692zM39.422 30.574l-3.692-3.692 1.305-1.305 3.692 3.692z"/>
    </g>
</svg>
